<svg xmlns="http://www.w3.org/2000/svg" xmlns:xlink="http://www.w3.org/1999/xlink" xmlns:lucid="lucid" width="1144.8" height="214.44"><g transform="translate(-320 -420)" lucid:page-tab-id="0_0"><path d="M776.1 446c0-3.3 2.7-6 6-6h220.6c3.3 0 6 2.7 6 6v162.44c0 3.32-2.7 6-6 6H782.1c-3.3 0-6-2.68-6-6z" stroke="#5e5e5e" stroke-width="3" fill="#ff8f80"/><use xlink:href="#a" transform="matrix(1,0,0,1,788.1052631579541,452) translate(58.8111111111111 83.84027777777777)"/><path d="M572.2 527.22h183.9" stroke="#5e5e5e" stroke-width="2" fill="none"/><path d="M572.23 528.22h-1.1l.17-.4-.27-1.6h1.2z" fill="#5e5e5e"/><path d="M771.37 527.22l-14.27 4.64v-9.27z" stroke="#5e5e5e" stroke-width="2" fill="#5e5e5e"/><path d="M1212.2 446c0-3.3 2.7-6 6-6h220.6c3.3 0 6 2.7 6 6v162.44c0 3.32-2.7 6-6 6h-220.6c-3.3 0-6-2.68-6-6z" stroke="#5e5e5e" stroke-width="3" fill="#a3d977"/><use xlink:href="#b" transform="matrix(1,0,0,1,1224.2105263158405,452) translate(65.37777777777777 83.84027777777777)"/><path d="M451.5 443.6c2.65-2 6.94-2 9.6 0l106.7 80.02c2.64 2 2.64 5.2 0 7.2l-106.7 80.02c-2.66 2-6.95 2-9.6 0l-106.7-80.02c-2.65-2-2.65-5.2 0-7.2z" stroke="#5e5e5e" stroke-width="3" fill="#3aa6dd"/><use xlink:href="#c" transform="matrix(1,0,0,1,345,445) translate(79.14944444444446 89.96527777777777)"/><path d="M1011.2 527.22h181" stroke="#5e5e5e" stroke-width="2" fill="none"/><path d="M1011.22 528.22h-1.03v-2h1.02z" fill="#5e5e5e"/><path d="M1207.47 527.22l-14.26 4.64v-9.27z" stroke="#5e5e5e" stroke-width="2" fill="#5e5e5e"/><path d="M572.2 527.22h183.9" stroke="#5e5e5e" stroke-width="2" fill="none"/><path d="M572.23 528.22h-1.1l.17-.4-.27-1.6h1.2z" fill="#5e5e5e"/><path d="M771.37 527.22l-14.27 4.64v-9.27z" stroke="#5e5e5e" stroke-width="2" fill="#5e5e5e"/><path d="M1011.2 527.22h181" stroke="#5e5e5e" stroke-width="2" fill="none"/><path d="M1011.22 528.22h-1.03v-2h1.02z" fill="#5e5e5e"/><path d="M1207.47 527.22l-14.26 4.64v-9.27z" stroke="#5e5e5e" stroke-width="2" fill="#5e5e5e"/><defs><path d="M508-545c2-158-81-220-249-220H80V-1h87v-323c107-4 215 13 273-44 43-42 68-99 68-177zM284-671c90-2 132 35 132 126 0 95-44 133-138 133H167v-259h117" id="d"/><path d="M342-538c69 0 100 50 99 123h84c-2-137-57-205-166-205-83 0-119 54-150 119v-98h-83V-8h84v-338c-1-109 35-192 132-192" id="e"/><path d="M293 12c158 0 222-139 222-316s-64-317-222-317C137-621 69-479 72-304c3 174 54 316 221 316zm0-547c106 0 136 103 136 230 0 126-30 231-136 231-105 0-135-105-135-231s29-230 135-230" id="f"/><path d="M81-303C74-101 186 69 380-4c79-29 119-111 126-216h-80c-7 80-47 145-125 145-107 0-133-104-134-231 0-125 30-230 134-230 79 0 118 53 121 132h83c-8-129-72-217-204-217-166 0-214 144-220 318" id="g"/><path d="M301-75c-93 0-133-92-131-201h334c12-188-46-345-211-345C93-621 58-371 97-171 120-51 220 50 364-2c73-26 116-90 131-177h-82c-12 58-48 104-112 104zM170-353c3-99 37-183 126-183 87 0 122 84 121 183H170" id="h"/><path d="M289 12c154 0 241-114 199-264-31-109-198-94-284-150-14-9-20-27-20-50 1-61 40-86 105-86s110 34 112 95c27-1 59 3 82-2-5-115-76-173-194-176-138-3-215 98-179 237 30 114 196 97 284 156 15 10 20 30 20 56-1 64-49 98-118 98-78 0-120-40-126-119H89C91-64 158 12 289 12" id="i"/><g id="a"><use transform="matrix(0.022222222222222223,0,0,0.022222222222222223,0,0)" xlink:href="#d"/><use transform="matrix(0.022222222222222223,0,0,0.022222222222222223,13.066666666666666,0)" xlink:href="#e"/><use transform="matrix(0.022222222222222223,0,0,0.022222222222222223,26.155555555555555,0)" xlink:href="#f"/><use transform="matrix(0.022222222222222223,0,0,0.022222222222222223,39.2,0)" xlink:href="#g"/><use transform="matrix(0.022222222222222223,0,0,0.022222222222222223,52.24444444444445,0)" xlink:href="#h"/><use transform="matrix(0.022222222222222223,0,0,0.022222222222222223,65.28888888888889,0)" xlink:href="#i"/><use transform="matrix(0.022222222222222223,0,0,0.022222222222222223,78.33333333333334,0)" xlink:href="#i"/></g><path d="M293 20c244 0 275-326 227-574-24-125-85-232-227-232C97-786 49-592 49-383 49-211 89-73 192-7c30 19 64 27 101 27zm111-634c51 94 51 368 0 462-56 103-165 103-221 0-51-93-50-369 0-462 56-104 165-103 221 0" id="j"/><path d="M95-242C85-93 122 11 260 11c67 0 117-37 152-111v90h80v-591h-84v341c1 106-40 183-136 183-82 0-92-65-93-155v-369H95v359" id="k"/><path d="M228-196C223-56 263 18 404 18c25 0 58-2 98-6v-83c-30 4-54 6-72 6-99 0-119-50-119-147v-285h191v-77H311v-173l-83 30v143H83v77h145v301" id="l"/><path d="M163-109C198-42 225 2 309 2c193 0 226-256 185-450-21-98-73-182-185-182-83 0-113 47-146 112v-91H80v819h83v-319zm132-434c97 0 129 107 128 228 0 75-11 132-35 171s-55 59-93 59c-104 0-131-105-131-230s27-228 131-228" id="m"/><g id="b"><use transform="matrix(0.022222222222222223,0,0,0.022222222222222223,0,0)" xlink:href="#j"/><use transform="matrix(0.022222222222222223,0,0,0.022222222222222223,13.044444444444444,0)" xlink:href="#k"/><use transform="matrix(0.022222222222222223,0,0,0.022222222222222223,26.08888888888889,0)" xlink:href="#l"/><use transform="matrix(0.022222222222222223,0,0,0.022222222222222223,39.111111111111114,0)" xlink:href="#m"/><use transform="matrix(0.022222222222222223,0,0,0.022222222222222223,52.17777777777778,0)" xlink:href="#k"/><use transform="matrix(0.022222222222222223,0,0,0.022222222222222223,65.22222222222223,0)" xlink:href="#l"/></g><path d="M459-1v-88H337v-588h122v-88H128v88h122v588H128v88h331" id="n"/><path d="M315-533c85 0 93 66 93 156V-8h84v-389c0-135-39-222-165-223-68 0-119 37-152 111v-90H95V-8h84v-341c-1-106 40-184 136-184" id="o"/><g id="c"><use transform="matrix(0.022222222222222223,0,0,0.022222222222222223,0,0)" xlink:href="#n"/><use transform="matrix(0.022222222222222223,0,0,0.022222222222222223,12.533333333333333,0)" xlink:href="#o"/><use transform="matrix(0.022222222222222223,0,0,0.022222222222222223,25.577777777777772,0)" xlink:href="#m"/><use transform="matrix(0.022222222222222223,0,0,0.022222222222222223,38.644444444444446,0)" xlink:href="#k"/><use transform="matrix(0.022222222222222223,0,0,0.022222222222222223,51.68888888888889,0)" xlink:href="#l"/></g></defs></g></svg>